# xmcd
#
# Track frame offsets:
#	150
#	20982
#	46267
#	62032
#
# Disc length: 1102 seconds
#
# Revision: 1
# Processed by: cddbd v1.5PL3 Copyright (c) Steve Scherf et al.
# Submitted via: CDex 1.50Beta5
#
DISCID=32044c04
DTITLE=光永亮太 - Always
DYEAR=2003
DGENRE=Pop
TTITLE0=Always
TTITLE1=Close to you
TTITLE2=Always(sweet mix)
TTITLE3=Always(less vocal)
EXTD=
EXTT0=
EXTT1=
EXTT2=
EXTT3=
PLAYORDER=
